<?xml version="1.0" encoding="iso-8859-1"?>
<!-- Generator: Adobe Illustrator 19.0.0, SVG Export Plug-In . SVG Version: 6.00 Build 0)  -->
<svg version="1.1" id="Layer_1" xmlns="http://www.w3.org/2000/svg" xmlns:xlink="http://www.w3.org/1999/xlink" x="0px" y="0px"
	 viewBox="0 0 512 512" style="enable-background:new 0 0 512 512;" xml:space="preserve">
<g>
	<g>
		<path d="M437.02,74.98C388.667,26.628,324.381,0,256,0S123.333,26.628,74.98,74.98C26.627,123.332,0,187.619,0,256
			s26.628,132.667,74.98,181.02C123.332,485.373,187.619,512,256,512s132.667-26.628,181.02-74.98S512,324.381,512,256
			S485.372,123.333,437.02,74.98z M256,478.609c-122.746,0-222.609-99.862-222.609-222.609S133.254,33.391,256,33.391
			S478.609,133.254,478.609,256S378.746,478.609,256,478.609z"/>
	</g>
</g>
<g>
	<g>
		<path d="M457.355,272.217c-15.87-50.769-44.265-97.611-82.113-135.46c-37.848-37.849-84.69-66.243-135.46-82.113l-15.922-4.978
			l-15.576,49.682c-31.426,9.591-59.677,28.724-80.319,54.584C104.942,182.775,92.262,219.024,92.262,256
			c0,36.909,12.42,72.526,35.142,101.333l-12.451,39.712l39.712-12.451c28.807,22.722,64.425,35.142,101.333,35.142
			c36.976,0,73.225-12.681,102.067-35.704c25.859-20.642,44.993-48.894,54.584-80.319l49.682-15.576L457.355,272.217z
			 M215.152,189.058c2.264-0.81,4.661-1.241,7.112-1.241c11.627,0,21.086,9.459,21.086,21.086c0,11.627-9.459,21.085-21.086,21.085
			c-6.97,0-13.281-3.358-17.17-8.849L215.152,189.058z M140.333,316.099c-9.577-18.416-14.679-38.993-14.679-60.099
			c0-29.863,9.824-57.953,28.409-81.235c11.291-14.143,25.43-25.76,41.277-34.124L140.333,316.099z M194.263,255.695
			c8.253,4.933,17.858,7.687,28.003,7.687c30.039,0,54.477-24.438,54.477-54.477c0-28.793-22.458-52.425-50.775-54.338l4.311-13.749
			c31.707,12.467,60.879,31.52,85.132,55.773s43.306,53.425,55.773,85.132l-64.747,20.297
			c-8.839-18.336-27.638-30.918-49.103-30.918c-30.038,0-54.477,24.438-54.478,54.479c0,2.923,0.264,5.823,0.725,8.685
			l-37.653,11.805L194.263,255.695z M273.664,312.296L236.328,324c0.814-10.89,9.913-19.507,21.006-19.507
			C263.887,304.493,269.782,307.536,273.664,312.296z M337.235,357.937c-23.283,18.586-51.373,28.409-81.235,28.409
			c-21.106,0-41.682-5.102-60.099-14.679L371.36,316.66C362.997,332.507,351.38,346.646,337.235,357.937z M403.131,271.706
			c-14.119-36.816-36.06-70.676-64.111-98.727s-61.911-49.992-98.727-64.111l5.305-16.922
			c39.553,14.893,75.944,38.333,106.033,68.422c30.089,30.089,53.53,66.48,68.422,106.033L403.131,271.706z"/>
	</g>
</g>
<g>
</g>
<g>
</g>
<g>
</g>
<g>
</g>
<g>
</g>
<g>
</g>
<g>
</g>
<g>
</g>
<g>
</g>
<g>
</g>
<g>
</g>
<g>
</g>
<g>
</g>
<g>
</g>
<g>
</g>
</svg>
