<?xml version="1.0" encoding="iso-8859-1"?>
<!-- Generator: Adobe Illustrator 19.0.0, SVG Export Plug-In . SVG Version: 6.00 Build 0)  -->
<svg version="1.1" id="Layer_1" xmlns="http://www.w3.org/2000/svg" xmlns:xlink="http://www.w3.org/1999/xlink" x="0px" y="0px"
	 viewBox="0 0 512 512" style="enable-background:new 0 0 512 512;" xml:space="preserve">
<g>
	<g>
		<g>
			<path d="M277.748,301.784c-11.077,0-20.089,9.012-20.089,20.089c0,11.077,9.012,20.089,20.089,20.089
				c11.077,0,20.089-9.012,20.089-20.089S288.825,301.784,277.748,301.784z"/>
			<path d="M177.135,159.366c-11.077,0-20.089,9.022-20.089,20.1s9.012,20.089,20.089,20.089c11.077,0,20.089-9.012,20.089-20.089
				S188.212,159.366,177.135,159.366z"/>
			<path d="M382.939,162.756c7.927-2.691,13.643-10.201,13.643-19.036c0-3.046-0.678-5.935-1.898-8.522
				c-3.213-6.832-10.159-11.567-18.191-11.567c-11.077,0-20.089,9.012-20.089,20.089c0,11.088,9.012,20.1,20.089,20.1
				C378.746,163.82,380.916,163.444,382.939,162.756z"/>
			<path d="M450.769,48.907c-1.888-1.127-47.135-27.839-117.667-41.336c-41.388-7.917-83.006-9.638-123.716-5.1
				C158.485,8.134,108.951,23.634,62.17,48.531l-12.663,6.738L73.8,112.262c4.725-2.232,9.481-4.37,14.269-6.404
				c4.808-2.065,9.648-4.037,14.498-5.904c33.993-13.132,69.071-21.748,104.795-25.722c42.463-4.725,85.885-2.931,129.067,5.33
				c28.861,5.518,53.644,13.163,73.243,20.475c5.236,1.951,10.097,3.88,14.561,5.737c5.34,2.232,10.128,4.35,14.321,6.3
				l23.938-56.158L450.769,48.907z"/>
			<path d="M376.493,195.111c-2.42,0-4.808-0.167-7.134-0.501c-24.971-3.484-44.246-24.971-44.246-50.89
				c0-12.204,4.276-23.416,11.411-32.241c-2.357-0.49-4.756-0.96-7.176-1.419c-74.192-13.977-146.142-7.698-214.524,18.639
				c-4.85,1.867-9.68,3.838-14.498,5.904c-4.767,2.055-9.523,4.203-14.258,6.446L256.136,512L407.67,184.535
				c-6.102,4.683-13.278,8.021-21.091,9.586C383.315,194.767,379.946,195.111,376.493,195.111z M268.475,125.164h25.555v25.555
				h-25.555V125.164z M319.584,211.8v25.555H294.03V211.8H319.584z M156.514,226.517c-18.086-7.948-30.76-26.055-30.76-47.052
				c0-6.227,1.116-12.193,3.15-17.721c7.239-19.63,26.128-33.67,48.231-33.67c28.329,0,51.381,23.051,51.381,51.391
				c0,28.329-23.051,51.381-51.381,51.381C169.802,230.846,162.835,229.302,156.514,226.517z M222.237,281.549h-25.555v-25.555
				h25.555V281.549z M268.913,430.267v5.987h-2.555h-20.444h-2.555v-5.987v-19.568h25.555V430.267z M328.367,330.676
				c-1.366,7.938-4.569,15.26-9.158,21.508c-6.154,8.397-14.79,14.853-24.814,18.306c-5.226,1.794-10.827,2.764-16.647,2.764
				c-28.34,0-51.381-23.051-51.381-51.381c0-28.329,23.041-51.381,51.381-51.381c20.6,0,38.405,12.193,46.593,29.737
				c3.077,6.582,4.788,13.914,4.788,21.643C329.128,324.877,328.868,327.818,328.367,330.676z"/>
		</g>
	</g>
</g>
<g>
</g>
<g>
</g>
<g>
</g>
<g>
</g>
<g>
</g>
<g>
</g>
<g>
</g>
<g>
</g>
<g>
</g>
<g>
</g>
<g>
</g>
<g>
</g>
<g>
</g>
<g>
</g>
<g>
</g>
</svg>
